<svg xmlns="http://www.w3.org/2000/svg" viewBox="0 0 100 100">
		<path fill="#ffd000" d="M42.5,72.6c1.3,2.7,4.1,4.6,7.3,4.6c3.2,0,6-1.9,7.3-4.6H42.5z"/>
		<path fill="#ffd000" d="M69,41.6c0-10.6-8.6-19.1-19.2-19.1s-19.2,8.6-19.2,19.1c0,0.9,0,6.4,5.5,14.1c1.8,2.6,3,5,3.7,6.9
			c0.4,1,2,6.8,2,6.8h15.7c0,0,1.6-5.9,2-6.8c0.8-2,1.8-4.4,3.7-6.9C69,47.9,69,42.4,69,41.6z M60.2,53.5c-2.6,3.7-4,7-4.7,9.7H44.1
			c-0.8-2.6-2.2-6-4.7-9.7c-5.1-7-4.8-11.7-4.8-11.7v-0.1c0-8.4,6.9-15.3,15.3-15.3s15.3,6.9,15.3,15.3v0.1
			C65.1,41.8,65.3,46.5,60.2,53.5z"/>

</svg>
